<?xml version="1.0" encoding="UTF-8" standalone="no"?>
<!DOCTYPE svg PUBLIC "-//W3C//DTD SVG 1.1//EN" "http://www.w3.org/Graphics/SVG/1.1/DTD/svg11.dtd">
<svg width="100%" height="100%" viewBox="0 0 512 512" version="1.1" xmlns="http://www.w3.org/2000/svg" xmlns:xlink="http://www.w3.org/1999/xlink" xml:space="preserve" xmlns:serif="http://www.serif.com/" style="fill-rule:evenodd;clip-rule:evenodd;stroke-linejoin:round;stroke-miterlimit:2;">
    <g>
        <path d="M250.453,18.648C169.077,18.648 19.003,174.458 78.785,319.32C86.763,344.587 106.652,369.665 127.99,396.396C152.443,427.029 179.6,459.634 196.658,493.281L217.242,493.281C199.112,453.481 168.684,417.421 142.596,384.739C115.181,350.396 93.783,319.472 93.781,296.789C93.783,293.179 94.158,289.456 94.871,285.653L94.751,285.626C95.038,284.396 95.349,283.171 95.675,281.952C96.588,278.195 97.815,274.374 99.355,270.516C122.43,209.116 193.515,164.216 245.907,135.502L249.501,133.532L253.407,134.877C314.339,155.777 384.709,201.633 409.374,270.647C410.508,273.657 411.488,276.659 412.288,279.645C412.698,281.058 413.098,282.477 413.47,283.908L413.314,283.948C414.414,289.098 414.994,294.18 414.992,299.125L414.992,299.127C414.992,321.431 390.544,352.617 359.952,386.639C330.889,418.957 297.642,454.193 279.955,493.283L300.545,493.283C317.301,461.149 346.75,429.27 373.848,399.136C396.988,373.403 419.133,349.138 428.715,324.191C481.559,200.161 329.487,18.651 250.453,18.651L250.453,18.648ZM251.25,153.968C212.57,175.468 166.214,206.188 137.627,242.18C147.347,325.184 196.621,388.344 255.937,388.344C315.054,388.344 364.177,325.611 374.127,243.021C345.199,200.924 296.077,170.111 251.25,153.971L251.25,153.968ZM193,237C193.814,236.987 194.624,236.994 195.438,237C208.458,237.102 221.481,239.687 234.5,244.438C217.652,285.038 175.52,286.401 156.375,244.438C168.581,239.603 180.795,237.198 193,237ZM317.906,237C330.926,236.898 343.949,239.28 356.969,244.438C337.821,286.401 295.689,285.038 278.843,244.438C291.863,239.688 304.886,237.102 317.905,237L317.906,237ZM205.086,511.97L205.221,512.29L292.065,512.29L292.195,511.97L205.086,511.97Z" style="fill:rgb(146,146,146);fill-rule:nonzero;"/>
    </g>
</svg>
